<?xml version="1.0" encoding="UTF-8"?>
<svg version="1.1" xmlns="http://www.w3.org/2000/svg" width="512" height="512">
<path d="M0 0 C6.23405749 4.76460108 9.78822598 10.35730339 13.1875 17.3125 C14.60675781 17.07466797 14.60675781 17.07466797 16.0546875 16.83203125 C28.8581348 15.0218 42.22990949 15.08212948 54.1875 20.3125 C55.39212891 20.8384375 55.39212891 20.8384375 56.62109375 21.375 C71.02141909 28.56268405 80.56830598 41.58565815 85.9375 56.37890625 C87.89250965 63.31647521 89.44022636 76.80704729 86.1875 83.3125 C87.3425 83.4775 88.4975 83.6425 89.6875 83.8125 C100.88896642 86.31156134 111.65547856 92.81163905 120.1875 100.3125 C120.92097656 100.90417969 121.65445313 101.49585937 122.41015625 102.10546875 C138.37363444 115.38554924 148.57354887 135.81234624 151.1875 156.3125 C152.8134773 184.54870884 146.67451297 207.45705549 128.125 229.25 C124.95295948 232.72201216 121.54977886 235.49296177 117.65625 238.12109375 C117.1715625 238.51425781 116.686875 238.90742188 116.1875 239.3125 C116.1875 239.9725 116.1875 240.6325 116.1875 241.3125 C117.75402953 242.60935617 119.3684134 243.84850829 121 245.0625 C137.77128374 258.57868882 148.46887918 278.99146451 151.1875 300.3125 C152.7899104 328.13945352 147.05197829 351.32602783 128.5625 372.9375 C117.59688464 384.5737952 102.15931853 394.83411437 86.1875 397.3125 C86.5175 397.9725 86.8475 398.6325 87.1875 399.3125 C88.13015354 416.69720668 85.70301583 432.00110742 73.875 445.625 C63.6354054 456.29195664 51.24691476 464.20932967 36.05859375 464.54296875 C34.24734348 464.5390341 32.43608801 464.52456151 30.625 464.5 C29.71814453 464.49935547 28.81128906 464.49871094 27.87695312 464.49804688 C22.88069814 464.46543897 18.11241617 464.15696436 13.1875 463.3125 C12.88457031 463.89257812 12.58164062 464.47265625 12.26953125 465.0703125 C6.48718969 475.85215553 -0.40604222 482.45430168 -11.875 487.25 C-21.46550235 490.01982017 -33.85889566 489.84542952 -42.84375 485.4453125 C-48.75108871 482.04624856 -55.55592216 478.08223353 -57.8125 471.3125 C-57.90960929 468.77983284 -57.95005103 466.27483264 -57.94392776 463.74209785 C-57.9459804 462.96010566 -57.94803303 462.17811347 -57.95014787 461.37242454 C-57.95583967 458.73029261 -57.95435794 456.08821245 -57.95294189 453.44607544 C-57.95552427 451.54139135 -57.95853708 449.63670781 -57.9619453 447.73202503 C-57.97003335 442.48092634 -57.97180587 437.2298413 -57.97254276 431.97873712 C-57.97439016 426.32219591 -57.98193584 420.66566185 -57.98867798 415.00912476 C-58.00227409 402.63332928 -58.00828785 390.25753703 -58.01268864 377.88173532 C-58.01544859 370.15931409 -58.01968546 362.43689411 -58.02419281 354.71447372 C-58.03638657 333.34738533 -58.04672145 311.98029848 -58.0500679 290.61320686 C-58.05028954 289.23121371 -58.05051132 287.84922055 -58.05073325 286.46722739 C-58.05095389 285.08186944 -58.05117438 283.69651148 -58.0513947 282.31115353 C-58.05183726 279.5318172 -58.05228437 276.75248086 -58.05273438 273.97314453 C-58.05284377 273.28402966 -58.05295316 272.59491479 -58.05306586 271.88491765 C-58.05669783 249.5320648 -58.07262317 227.17924435 -58.09592474 204.82640391 C-58.12050657 181.20231804 -58.13423322 157.57825725 -58.13543582 133.95415676 C-58.13635393 121.07274343 -58.14214037 108.19137253 -58.16025543 95.30997086 C-58.17562267 84.34363954 -58.18079687 73.37736378 -58.17251733 62.41102375 C-58.16859898 56.81250495 -58.16959803 51.21409812 -58.18357468 45.61559296 C-58.19624261 40.49464823 -58.19517904 35.37390043 -58.18298396 30.25295626 C-58.18101458 28.39630521 -58.18416211 26.53964055 -58.19282833 24.68300869 C-58.20383427 22.16662523 -58.19649487 19.65094747 -58.1844368 17.13458443 C-58.19203199 16.40736944 -58.19962718 15.68015446 -58.20745254 14.93090266 C-58.14936596 9.34721689 -56.58976913 6.30081984 -52.9375 2.21484375 C-37.82523339 -11.75844689 -16.59567696 -11.1453541 0 0 Z M-40.8125 14.3125 C-40.91674297 16.7120566 -40.95534201 19.08309766 -40.9523077 21.48342609 C-40.95525912 22.24652646 -40.95821055 23.00962682 -40.96125141 23.79585144 C-40.97000178 26.38574653 -40.9715284 28.97559727 -40.97312927 31.56550598 C-40.97785619 33.42792912 -40.98300653 35.29035123 -40.98854691 37.15277213 C-41.00250214 42.29629933 -41.01005043 47.43981943 -41.0165199 52.58336079 C-41.02287638 56.98864787 -41.03294846 61.39392318 -41.04308056 65.79920296 C-41.07645598 80.31613613 -41.09793468 94.83307646 -41.11628041 109.35003546 C-41.12107228 113.12760542 -41.12605597 116.90517509 -41.13108563 120.68274474 C-41.16205196 144.11776677 -41.18875491 167.55279161 -41.20550442 190.98782825 C-41.20944186 196.41970131 -41.21345366 201.85157431 -41.2175293 207.28344727 C-41.21803096 207.95831024 -41.21853263 208.63317322 -41.2190495 209.32848658 C-41.23547323 231.21671783 -41.2739365 253.10483739 -41.3248164 274.99301367 C-41.37847818 298.11998057 -41.4102169 321.24688344 -41.4177013 344.37392062 C-41.42237256 356.98655759 -41.43721791 369.59900972 -41.4774456 382.21158791 C-41.51165327 392.95003196 -41.5257226 403.68825788 -41.51302146 414.42675332 C-41.50717291 419.90982917 -41.51121233 425.39244316 -41.5411911 430.87545013 C-41.56838539 435.8899079 -41.5681829 440.90357198 -41.54568065 445.91804608 C-41.54243572 447.73706406 -41.54945286 449.55613361 -41.56747787 451.37506519 C-41.59042485 453.8390418 -41.57676843 456.30014053 -41.55358028 458.76405048 C-41.56905652 459.47842072 -41.58453275 460.19279096 -41.60047796 460.92880878 C-41.61796835 463.17368845 -41.61796835 463.17368845 -40.8125 466.3125 C-34.08995465 471.97794774 -27.25943512 472.00388615 -18.8125 471.3125 C-12.11276638 469.59096452 -7.68742692 464.84965183 -3.8125 459.3125 C-2.56654346 456.5239306 -1.94459331 453.99498212 -1.3671875 451.01171875 C-1.20476562 450.20347656 -1.04234375 449.39523437 -0.875 448.5625 C-0.74222656 447.80453125 -0.60945313 447.0465625 -0.47265625 446.265625 C0.1875 444.3125 0.1875 444.3125 3.1875 442.3125 C8.24203408 441.55969705 11.40118197 442.69545727 16.0625 444.75 C26.16760365 449.163147 35.44718384 449.18300686 45.89453125 445.30859375 C56.56498203 440.34216274 64.31328667 432.74923991 68.5 421.75 C71.34580907 412.57889061 71.20865033 403.37595099 68.1875 394.3125 C67.87366147 391.111347 67.75973388 389.15034267 69.2265625 386.27734375 C72.00792904 383.49043663 75.16318312 382.95789986 78.875 382.0625 C97.84144252 376.91623537 114.06718011 366.92666304 124.203125 349.57373047 C134.02822088 332.06387889 137.74809143 312.25598562 132.359375 292.53125 C128.60631549 282.22284654 123.564579 272.49217788 116.1875 264.3125 C115.6925 263.72597656 115.1975 263.13945312 114.6875 262.53515625 C110.50785697 257.92709981 105.54033966 254.78216653 100.24975586 251.59570312 C96.36812533 249.22757959 93.18375419 246.74154646 90.1875 243.3125 C89.5625 240.3125 89.5625 240.3125 90.1875 237.3125 C92.99251025 233.54024484 96.39496139 231.51479008 100.375 229.0625 C117.10820078 218.61828743 128.75323195 202.71125499 133.625 183.5625 C136.66377607 163.31537407 133.21174468 142.30732346 120.90771484 125.57177734 C117.92293153 121.870034 114.64615053 118.57142564 111.1875 115.3125 C110.39601563 114.56355469 109.60453125 113.81460938 108.7890625 113.04296875 C98.83215523 104.39269881 86.93809515 100.05234263 74.234375 97.33203125 C71.1875 96.3125 71.1875 96.3125 69.25 94.48046875 C67.99059146 91.9107197 67.99565668 90.61724453 68.4375 87.8125 C68.54578125 87.0596875 68.6540625 86.306875 68.765625 85.53125 C69.1875 83.3125 69.1875 83.3125 69.71484375 81.4375 C72.04524413 70.96032806 70.18669483 59.94328936 64.6796875 50.8125 C57.54880157 40.99509426 48.6274219 35.48113071 36.875 32.78125 C29.09728691 31.55903794 21.49296458 33.06575587 14.4375 36.4375 C10.52037102 38.30146477 7.5790586 39.00137194 3.1875 38.3125 C0.875 37 0.875 37 -0.8125 34.3125 C-1.15075519 32.57090508 -1.43659885 30.81880808 -1.6875 29.0625 C-2.77344406 21.86451681 -6.14532652 17.78451444 -11.375 12.9375 C-19.81299624 7.31216917 -33.20309908 6.70309908 -40.8125 14.3125 Z " fill="#4251F5" transform="translate(328.8125,15.6875)"/>
<path d="M0 0 C3.92346785 2.77077018 7.08543799 5.54291063 9.765625 9.57421875 C10.1525887 12.33344 10.30937094 14.69046017 10.2773695 17.4448061 C10.28408205 18.23496069 10.2907946 19.02511527 10.29771057 19.83921394 C10.31537135 22.49736865 10.30446375 25.15463958 10.29374695 27.81282043 C10.30050175 29.73359781 10.30899126 31.65436974 10.31907016 33.57513255 C10.34164564 38.86160032 10.33912547 44.14780671 10.33250082 49.43430769 C10.32963254 55.13248422 10.3496635 60.83058676 10.36665344 66.5287323 C10.39604798 77.69553077 10.40330192 88.86223893 10.40207794 100.02907208 C10.4012464 109.10403037 10.40709581 118.17896002 10.41770363 127.25391197 C10.44238454 148.78492679 10.4627991 170.31591425 10.45683575 191.84694386 C10.45655445 192.87996544 10.45655445 192.87996544 10.45626746 193.93385614 C10.45529545 197.42443029 10.4542516 200.91500441 10.45318475 204.40557853 C10.45297377 205.09882714 10.45276279 205.79207574 10.45254542 206.50633188 C10.45211789 207.90824978 10.45168576 209.31016768 10.45124905 210.71208558 C10.44466667 232.52436829 10.4676082 254.33644814 10.51342773 276.14868164 C10.56486109 300.6509867 10.59274761 325.15313953 10.5869258 349.65550536 C10.58434685 362.63038908 10.59238174 375.60506422 10.62799644 388.57990456 C10.65807834 399.62633532 10.66391592 410.67244896 10.63818743 421.71889643 C10.62574298 427.35645419 10.62463383 432.99341546 10.65389633 438.63092422 C10.6803914 443.79111275 10.67462568 448.95021841 10.64306638 454.11036917 C10.63732603 455.97778148 10.64342941 457.84527526 10.6625224 459.71259878 C10.81217221 475.40805536 10.81217221 475.40805536 6.39565754 480.60927868 C3.54768189 483.18996151 0.51641718 485.28031056 -2.921875 487.01171875 C-3.83324219 487.48480469 -4.74460938 487.95789063 -5.68359375 488.4453125 C-14.47095183 492.33435765 -27.26681011 492.04047676 -36.296875 488.94921875 C-47.32676141 484.12787269 -54.78638362 477.26066339 -60.234375 466.57421875 C-60.234375 465.91421875 -60.234375 465.25421875 -60.234375 464.57421875 C-61.16894531 464.89648438 -62.10351562 465.21875 -63.06640625 465.55078125 C-74.8957421 468.90851788 -90.25182667 467.9170801 -101.234375 462.57421875 C-102.19601563 462.1153125 -103.15765625 461.65640625 -104.1484375 461.18359375 C-119.27711008 453.43575604 -127.68934199 441.27821728 -133.359375 425.4296875 C-134.49277607 420.43563903 -134.45000798 415.73656689 -134.359375 410.63671875 C-134.35035156 409.66669922 -134.34132812 408.69667969 -134.33203125 407.69726562 C-134.30863607 405.32265468 -134.27585676 402.94857099 -134.234375 400.57421875 C-135.64976562 400.04634766 -135.64976562 400.04634766 -137.09375 399.5078125 C-162.618879 389.78379466 -181.19930456 373.72893156 -192.546875 348.57421875 C-197.20912435 337.88711421 -198.77939416 326.92116862 -198.671875 315.32421875 C-198.66285156 314.14617676 -198.65382812 312.96813477 -198.64453125 311.75439453 C-198.17506715 287.96495321 -189.1581217 267.2121963 -172.15625 250.484375 C-164.85781662 243.57421875 -164.85781662 243.57421875 -162.234375 243.57421875 C-162.234375 242.91421875 -162.234375 242.25421875 -162.234375 241.57421875 C-162.79898438 241.32285156 -163.36359375 241.07148438 -163.9453125 240.8125 C-180.42831829 231.8959252 -191.00184819 212.00071953 -196.20751953 194.69799805 C-202.61687907 170.3822304 -198.4263493 146.06420714 -186.234375 124.57421875 C-185.75097656 123.72214844 -185.26757812 122.87007812 -184.76953125 121.9921875 C-173.02409965 103.09736276 -154.71738134 91.97908756 -134.234375 84.57421875 C-134.25532227 84.0009082 -134.27626953 83.42759766 -134.29785156 82.83691406 C-134.97552454 61.45161363 -134.97552454 61.45161363 -130.234375 51.57421875 C-129.77546875 50.61128906 -129.3165625 49.64835937 -128.84375 48.65625 C-121.09508113 33.54634571 -108.94674881 25.09628207 -93.09375 19.45703125 C-88.08447651 18.31118529 -83.35453521 18.28292714 -78.234375 18.32421875 C-77.2753125 18.31648438 -76.31625 18.30875 -75.328125 18.30078125 C-69.9041207 18.31568236 -65.3603477 18.7801283 -60.234375 20.57421875 C-60.04875 19.76984375 -59.863125 18.96546875 -59.671875 18.13671875 C-55.34130769 7.40444324 -46.68663506 0.75800586 -36.3125 -3.6640625 C-24.57716134 -7.96554942 -10.4272832 -6.65377337 0 0 Z M-40.109375 19.51171875 C-44.44264216 24.86689019 -45.53737753 29.65288564 -46.57421875 36.3671875 C-47.234375 38.57421875 -47.234375 38.57421875 -50.234375 40.57421875 C-55.28890908 41.3270217 -58.44805697 40.19126148 -63.109375 38.13671875 C-73.22629386 33.71841176 -82.43217272 33.74535009 -92.90625 37.54296875 C-103.0009979 42.18279077 -110.57971478 49.45605572 -115.234375 59.57421875 C-116.98335476 64.63014317 -117.54544842 69.26083132 -117.484375 74.57421875 C-117.49210937 75.24710938 -117.49984375 75.92 -117.5078125 76.61328125 C-117.48987882 81.25810441 -116.57456204 85.15320334 -115.234375 89.57421875 C-115.296875 93.32421875 -115.296875 93.32421875 -116.234375 96.57421875 C-119.95965239 99.36988563 -123.60777228 100.26942998 -128.109375 101.26171875 C-142.34163749 104.7912073 -153.11482353 112.15657197 -163.234375 122.57421875 C-163.84925781 123.20328125 -164.46414062 123.83234375 -165.09765625 124.48046875 C-178.99046474 139.70153024 -182.07785578 158.96893167 -181.41357422 178.83789062 C-180.42050398 194.00182969 -173.18257738 207.41788553 -163.234375 218.57421875 C-162.29271484 219.63962891 -162.29271484 219.63962891 -161.33203125 220.7265625 C-155.81223241 226.60757517 -149.31398337 230.83599236 -142.234375 234.65234375 C-139.03337467 236.46829586 -138.28234215 237.41903091 -137.171875 241.01171875 C-137.24253867 245.03954797 -137.87473106 246.38205973 -140.234375 249.57421875 C-142.51171875 250.98828125 -142.51171875 250.98828125 -145.171875 252.19921875 C-160.63136856 260.1339986 -172.63160506 275.05135098 -178.046875 291.38671875 C-183.98330073 309.92604184 -182.67825378 329.32970801 -174.421875 346.94921875 C-165.46343285 363.67910946 -151.05590252 376.06250677 -133.234375 382.57421875 C-129.32508842 383.64212634 -125.38499256 384.54211993 -121.421875 385.38671875 C-118.234375 386.57421875 -118.234375 386.57421875 -116.28125 388.9765625 C-114.68519411 392.93692506 -115.54900194 396.30994922 -116.76171875 400.31640625 C-119.04651554 411.2305595 -117.60872732 422.53672448 -111.7265625 432 C-104.24932509 442.3464099 -94.47650235 448.29893656 -81.921875 450.51171875 C-73.29250609 451.18150731 -64.81434971 448.41177917 -57.234375 444.57421875 C-53.46483825 444.11927466 -51.24539919 444.00039421 -47.921875 445.88671875 C-45.69172959 449.43843181 -45.41498829 452.78681013 -44.77734375 456.890625 C-43.46127452 463.39522614 -38.52794323 467.92044608 -33.234375 471.57421875 C-27.47526331 474.43438365 -21.52375142 474.10426683 -15.234375 473.57421875 C-11.69422028 472.39400111 -11.69422028 472.39400111 -9.234375 470.57421875 C-8.244375 469.91421875 -7.254375 469.25421875 -6.234375 468.57421875 C-5.93102286 466.06264228 -5.82689599 463.79532288 -5.84847164 461.28024483 C-5.84058297 460.13386351 -5.84058297 460.13386351 -5.83253494 458.96432298 C-5.81846201 456.37637579 -5.82597452 453.78892743 -5.83323669 451.20095825 C-5.82763739 449.33766891 -5.82073731 447.4743831 -5.81264073 445.61110294 C-5.79420496 440.46979268 -5.79469701 435.32862815 -5.79822385 430.18729234 C-5.79883382 424.65070707 -5.7822993 419.11416949 -5.76805115 413.5776062 C-5.7430851 402.72256962 -5.73488453 391.8675819 -5.73321401 381.01251902 C-5.73179072 372.19298933 -5.7256375 363.37347583 -5.71611214 354.55395126 C-5.69398425 333.64155522 -5.67553904 312.72916797 -5.67710781 291.81675911 C-5.67715455 291.14753918 -5.67720128 290.47831925 -5.67724944 289.78881992 C-5.67749877 286.39671315 -5.67779589 283.00460638 -5.67810356 279.61249961 C-5.67819331 278.60192072 -5.67819331 278.60192072 -5.67828488 277.57092609 C-5.67840619 276.20850071 -5.67853158 274.84607533 -5.67866105 273.48364994 C-5.68049964 252.28282082 -5.65797685 231.0821356 -5.61694336 209.88134766 C-5.57089251 186.07826202 -5.5450808 162.27527017 -5.54783303 138.4721278 C-5.54883081 125.86287395 -5.54050813 113.25378237 -5.50829887 100.64456558 C-5.48105446 89.90978904 -5.47439945 79.17524828 -5.49482714 68.44045223 C-5.50465897 62.95940648 -5.50466451 57.47881372 -5.4787674 51.99781036 C-5.4553263 46.98522298 -5.45930527 41.97345161 -5.48561979 36.96088539 C-5.49025922 35.14257833 -5.48464769 33.32421191 -5.46803956 31.50597478 C-5.44702269 29.04293843 -5.4625964 26.58280858 -5.48770809 24.11987495 C-5.47280355 23.40579056 -5.45789901 22.69170617 -5.44254282 21.95598286 C-5.4268537 19.71182192 -5.4268537 19.71182192 -6.234375 16.57421875 C-16.76010399 7.70535117 -31.18390646 9.83636453 -40.109375 19.51171875 Z " fill="#6640F2" transform="translate(230.234375,13.42578125)"/>
<path d="M0 0 C2.52241734 1.95302291 2.95531077 2.82124307 3.75 6 C4.11383028 9.20035896 3.7807627 12.1250086 3.375 15.3125 C2.60156231 22.84062684 4.36591168 28.96703964 8.5625 35.25 C14.42811878 42.36944884 22.01325841 45.76505474 31.0546875 46.875 C39.40252941 47.22928507 44.75858703 44.70034103 51.6796875 40.28515625 C55.03009891 38.429457 57.27160685 38.19583677 61 39 C64.69186542 41.59216083 65.82883761 43.04149064 66.625 47.5 C65.83153973 51.94337752 64.48461482 53.19715764 61 56 C60.154375 56.680625 59.30875 57.36125 58.4375 58.0625 C45.85143439 65.15646425 32.907711 66.18682294 19 63 C6.92267447 59.54439899 -2.88673194 51.12412641 -9.5390625 40.5546875 C-15.35201441 29.71064271 -16.40103495 18.09644879 -13.67578125 6.17578125 C-11.59263585 -0.53122447 -6.31465898 -1.29084189 0 0 Z " fill="#3358F7" transform="translate(334,120)"/>
<path d="M0 0 C2.125 0.4921875 2.125 0.4921875 4.625 2.7421875 C9.07244517 10.89583697 8.23522212 23.00451817 6.44140625 31.87109375 C1.87745796 45.18418771 -7.33943929 55.2996958 -19.875 61.4921875 C-32.64713025 66.66953367 -46.20136753 66.45318786 -59.125 61.8046875 C-64.27389731 59.50878575 -69.21826986 56.86659365 -72.875 52.4921875 C-73.90617884 49.24507115 -73.87885703 46.74217464 -72.875 43.4921875 C-70.40156201 40.50951228 -68.96213444 39.61229584 -65.1171875 39.1875 C-61.0991504 39.56509867 -58.63374443 40.95701105 -55.125 42.9296875 C-47.10371766 47.19142325 -40.05314215 48.72628503 -31.16796875 46.3359375 C-22.59415149 43.18100645 -17.06180626 38.62534156 -12.875 30.4921875 C-12.29878906 29.42677734 -12.29878906 29.42677734 -11.7109375 28.33984375 C-10.22678778 23.28402532 -10.87919856 18.01803572 -11.12890625 12.796875 C-11.23574378 8.5862195 -11.24187071 6.14790663 -9.1484375 2.40625 C-5.95117741 -0.28560128 -4.03409633 -0.22559091 0 0 Z " fill="#5448F4" transform="translate(184.875,119.5078125)"/>
<path d="M0 0 C3.78406738 2.87207992 4.57691496 5.35140263 5.375 9.9375 C6.25808823 13.93823122 6.84929877 16.54224959 10.0625 19.1875 C15.41907905 22.49262324 19.74609222 22.66008769 26 22 C28.20855347 21.1045388 30.15976548 20.02526769 32.22265625 18.83984375 C34 18 34 18 37.25 18 C40.58109007 19.21130548 42.02222204 20.03333306 44 23 C44.87269783 27.91884234 44.87269783 27.91884234 44 31 C40.43873698 35.80931894 34.8335858 38.95116808 29 40 C19.60658009 40.74814849 11.28616792 41.03416854 3 36 C1.67088286 35.32496678 0.33860987 34.65600749 -1 34 C-7.40996195 37.92850693 -7.40996195 37.92850693 -10.58984375 44.4375 C-10.70457031 45.283125 -10.81929688 46.12875 -10.9375 47 C-11.50933355 50.10162515 -11.94638772 51.91339555 -13.625 54.625 C-17.10576139 56.64017765 -20.07783002 56.6281915 -24 56 C-26.4375 55.0625 -26.4375 55.0625 -28 53 C-30.30185099 45.42307383 -28.29014559 38.40959711 -24.7421875 31.578125 C-22.13485304 27.33230167 -19.86493838 24.77730646 -15.5625 22.25 C-13.42123518 20.96603608 -13.42123518 20.96603608 -12 19 C-11.79853994 15.54452197 -12.17195292 12.52265786 -12.79296875 9.12109375 C-13.04150793 5.37424844 -12.27207417 3.92880424 -10 1 C-6.87057535 -0.56471233 -3.38917777 -0.69701958 0 0 Z " fill="#4A4DF5" transform="translate(380,296)"/>
<path d="M0 0 C3.09716353 0.7014689 4.20822636 1.88587569 6.03515625 4.4609375 C6.109375 7.88671875 6.109375 7.88671875 5.72265625 11.7734375 C5.40950975 17.10281999 5.40950975 17.10281999 7.84765625 21.71875 C9.43158904 22.83896562 11.05318138 23.90772178 12.70703125 24.921875 C17.80288687 28.29061177 20.79658447 34.6058709 22.03515625 40.4609375 C22.97762148 51.21954057 22.97762148 51.21954057 20.26171875 54.796875 C17.90686987 56.55681469 16.92383975 57.00607318 14.03515625 56.9609375 C13.37515625 56.97125 12.71515625 56.9815625 12.03515625 56.9921875 C9.10217243 56.21311367 7.9123162 54.81136447 6.03515625 52.4609375 C5.12890625 49.83984375 5.12890625 49.83984375 4.53515625 47.0234375 C3.444791 42.62680342 2.47660588 39.59872981 -0.96484375 36.4609375 C-3.24674976 35.04280333 -3.24674976 35.04280333 -5.96484375 34.4609375 C-8.58971582 35.54994168 -8.58971582 35.54994168 -11.21484375 37.3359375 C-19.71078887 41.90906351 -28.82053683 41.90891008 -38.09765625 39.72265625 C-42.94868967 37.96325159 -47.00334136 35.80447434 -49.96484375 31.4609375 C-50.72283783 27.73784891 -50.43636172 24.54265519 -48.90234375 21.0234375 C-45.90423245 18.60560581 -43.79714326 18.4609375 -39.96484375 18.4609375 C-38.1171875 19.30078125 -38.1171875 19.30078125 -36.21484375 20.3984375 C-31.26188877 23.16399796 -26.51535267 23.30115215 -20.96484375 22.4609375 C-16.43768678 20.2782011 -14.00707928 18.03165511 -11.96484375 13.4609375 C-11.18489066 10.6134897 -10.46308465 7.76569956 -9.80859375 4.88671875 C-8.11971043 0.03117919 -4.60134125 0.19504722 0 0 Z " fill="#7538F1" transform="translate(137.96484375,295.5390625)"/>
<path d="M0 0 C10.78883514 2.38966335 19.08873191 8.69165221 25.4921875 17.58203125 C32.04405611 28.08878428 32.7470218 40.30624065 30.33984375 52.28515625 C27.82803912 60.01629518 22.98509354 67.60745079 16 72 C12.08236526 72.84933097 8.93670847 72.56202508 5.5 70.5 C3.82514203 67.70857005 3.26218473 65.48506466 3.40234375 62.21875 C4.39948369 58.51694942 6.76359688 56.00064301 9.2734375 53.17578125 C13.84629221 47.41315665 13.72498566 41.05713891 13 34 C11.28110745 27.81404538 7.31790255 23.47156216 2 20 C-2.61425109 17.87806179 -7.41299085 16.94540888 -12.35546875 15.87890625 C-15 15 -15 15 -17 12 C-17.67501754 4.91231586 -17.67501754 4.91231586 -15.35546875 1.77734375 C-10.84064121 -1.62936692 -5.38621584 -0.59169075 0 0 Z " fill="#5E44F3" transform="translate(169,208)"/>
<path d="M0 0 C1.1240625 -0.03738281 2.248125 -0.07476562 3.40625 -0.11328125 C6.5 0.3125 6.5 0.3125 8.875 2.08203125 C10.58980969 4.43577243 11.04476004 5.44785725 11 8.3125 C11.0103125 8.9725 11.020625 9.6325 11.03125 10.3125 C10.24419467 13.27553185 8.9014708 14.43982989 6.5 16.3125 C3.546875 17.18359375 3.546875 17.18359375 0.25 17.75 C-7.08106925 19.28039156 -12.06707998 21.36738629 -16.875 27.1875 C-20.47081335 34.10252567 -21.00681549 39.76586574 -19.5 47.3125 C-18.01155775 51.22945329 -15.90111967 54.07672542 -13.3125 57.3125 C-11.30086632 59.946185 -10.52663896 61.1766413 -9.875 64.5 C-10.70581871 68.23868421 -11.52827192 69.84814013 -14.5 72.3125 C-17.69925226 73.1895151 -20.29141279 73.13911908 -23.5 72.3125 C-30.85672427 67.9044223 -34.71916103 58.67205843 -37.31640625 50.85546875 C-37.86431372 48.6676704 -38.2370579 46.55161634 -38.5 44.3125 C-38.5825 43.62027344 -38.665 42.92804688 -38.75 42.21484375 C-39.35480222 31.80090552 -35.19764827 21.17107397 -28.5 13.3125 C-20.43164421 4.78744482 -11.76152613 0.25627178 0 0 Z " fill="#4450F5" transform="translate(349.5,207.6875)"/>
<path d="M0 0 C10.79980549 2.39209322 19.05158572 8.69543894 25.4921875 17.5625 C30.43224114 25.54849344 32.74654499 34.63800519 31 44 C29.15566845 46.43079663 27.97084612 47.742119 25 48.53125 C24.34 48.5209375 23.68 48.510625 23 48.5 C22.34 48.5103125 21.68 48.520625 21 48.53125 C18.0333343 47.74322942 16.87428996 46.4063977 15 44 C14.09375 40.9765625 14.09375 40.9765625 13.5 37.625 C11.78305214 29.41670382 8.66208355 24.89459199 2 20 C-2.62303175 17.89221095 -7.41024431 16.94600154 -12.35546875 15.87890625 C-15 15 -15 15 -17 12 C-17.67501754 4.91231586 -17.67501754 4.91231586 -15.35546875 1.77734375 C-10.84064121 -1.62936692 -5.38621584 -0.59169075 0 0 Z " fill="#7837F1" transform="translate(169,376)"/>
<path d="M0 0 C1.1240625 -0.03738281 2.248125 -0.07476562 3.40625 -0.11328125 C6.5 0.3125 6.5 0.3125 8.875 2.08203125 C10.58980969 4.43577243 11.04476004 5.44785725 11 8.3125 C11.0103125 8.9725 11.020625 9.6325 11.03125 10.3125 C10.24419467 13.27553185 8.9014708 14.43982989 6.5 16.3125 C3.546875 17.18359375 3.546875 17.18359375 0.25 17.75 C-6.94531729 19.25205277 -11.7497832 21.41362283 -16.8125 26.75 C-19.01150224 31.39233806 -19.76794016 36.01766019 -20.59375 41.0703125 C-21.60014082 44.67076243 -22.51677747 46.10210505 -25.5 48.3125 C-29.24390967 49.24116509 -32.56447074 48.81624653 -35.9375 47 C-38.49358766 44.23942533 -38.84732499 41.26387746 -38.77734375 37.59375 C-37.24033719 24.95132987 -31.45324324 15.1611539 -21.875 7.0390625 C-15.17348925 2.16724054 -8.19834291 0.17863362 0 0 Z " fill="#5F43F3" transform="translate(349.5,375.6875)"/>
</svg>
